<svg width="72" height="72" viewBox="0 0 72 72" fill="none" xmlns="http://www.w3.org/2000/svg">
<path d="M17.2832 58.8244C17.2832 58.8244 15.2832 45.3244 27.2832 45.3244C30.475 47.4523 33.2096 48.9228 36.2832 48.9165H36.1582C39.2318 48.9228 40.8663 46.7523 44.0582 44.6244C59.6287 44.6243 55.5582 58.8244 55.5582 58.8244" fill="#92D3F5"/>
<path d="M35.5372 55.498L32.2983 51.5662L29.0593 47.6344H35.5372H42.0152L38.7762 51.5662L35.5372 55.498Z" fill="white"/>
<path d="M26.5303 44.9199C26.5303 44.9199 20.63 48.9465 24.3693 52.3868H28.9422L28.1087 56.1287L36.0006 58.0812L36.2909 55.5757L27.9303 45.2121" fill="#61B2E4"/>
<path d="M67.0867 43.4225L60.1367 59.7725H35.1467L42.0967 43.4225H67.0867Z" fill="#D0CFCE"/>
<path d="M67.3033 43.4225L60.3533 59.7725H60.1333H51.3633L58.3133 43.4225H67.0833H67.3033Z" fill="#9B9B9A"/>
<path d="M47.6757 18.0722C48.579 21.0837 49.4923 25.0429 47.1888 26.5261C47.1888 26.5261 45.8908 21.3341 44.2192 20.4025" fill="#0A0702"/>
<path d="M28.0616 19.9722C33.5714 22.6571 40.8365 22.1668 44.9193 19.9025C45.726 19.4551 46.4474 18.8994 47.0611 18.2309C49.977 15.0538 47.2868 11.8857 47.2868 11.8857L44.6563 13.9159C35.8211 5.08069 25.9843 10.3291 26.647 15.3489C26.647 15.3489 19.702 18.9722 24.5117 26.8124L28.0616 19.9722Z" fill="#0A0702"/>
<path d="M44.9194 19.9025C40.8366 22.1668 33.5715 22.6571 28.0617 19.9722L24.5118 26.8124C24.4406 26.6964 24.3805 26.5845 24.3144 26.4704C24.2994 26.7685 24.2781 27.0646 24.2781 27.3674C24.2781 35.1951 29.3546 41.5407 35.6167 41.5407C41.8788 41.5407 46.9553 35.1951 46.9553 27.3674C46.9553 24.557 46.2926 21.9447 45.1639 19.7414C45.0798 19.7917 45.0057 19.8546 44.9194 19.9025Z" fill="#FADCBC"/>
<path d="M16.917 58.9189C16.4326 58.9199 16.0068 58.5664 15.9307 58.0723C15.8896 57.8027 14.958 51.4395 18.5117 47.2969C20.4346 45.0557 23.2627 43.9199 26.9189 43.9199C27.1162 43.9199 27.3096 43.9785 27.4736 44.0879C30.6367 46.1963 33.1494 47.5059 35.8789 47.5117H35.9189C36.4707 47.5117 36.918 47.959 36.9189 48.5107C36.9199 49.0625 36.4727 49.5107 35.9209 49.5117H35.9189H35.916C35.9053 49.5107 35.8906 49.5107 35.8779 49.5117H35.7939C35.7793 49.5117 35.7637 49.5117 35.749 49.5107C32.6504 49.4688 29.9326 48.1084 26.6221 45.9229C23.7256 45.9795 21.5117 46.877 20.0361 48.5918C17.0801 52.0283 17.8984 57.7119 17.9072 57.7695C17.9902 58.3145 17.6152 58.8242 17.0693 58.9082C17.0186 58.916 16.9678 58.9189 16.917 58.9189Z" fill="black"/>
<path d="M33.9961 55.2832C33.7021 55.2832 33.4121 55.1553 33.2148 54.9082L25.9502 45.8369C25.6045 45.4063 25.6738 44.7764 26.1055 44.4316C26.5381 44.083 27.167 44.1563 27.5107 44.5869L34.7754 53.6582C35.1211 54.0889 35.0518 54.7188 34.6201 55.0635C34.4355 55.2119 34.2148 55.2832 33.9961 55.2832Z" fill="black"/>
<path d="M33.0068 57.3555C32.9326 57.3555 32.8574 57.3477 32.7813 57.3301L27.8838 56.2031C27.6152 56.1416 27.3848 55.9717 27.2451 55.7334C27.1064 55.4961 27.0713 55.2109 27.1484 54.9473L27.6064 53.3867H24.3691C24.1182 53.3867 23.877 53.292 23.6924 53.123C22.2881 51.8311 22.0723 50.4775 22.1387 49.5684C22.3516 46.6416 25.5977 44.3457 25.9668 44.0938C26.4219 43.7822 27.043 43.9004 27.3545 44.3555C27.666 44.8105 27.5498 45.4326 27.0947 45.7451C26.3115 46.2832 24.252 48.0459 24.1328 49.7168C24.0908 50.3086 24.3037 50.8574 24.7832 51.3867H28.9424C29.2578 51.3867 29.5537 51.5352 29.7432 51.7871C29.9316 52.04 29.9902 52.3662 29.9023 52.668L29.3672 54.4922L33.2305 55.3809C33.7686 55.5049 34.1045 56.041 33.9805 56.5801C33.874 57.042 33.4619 57.3555 33.0068 57.3555Z" fill="black"/>
<path d="M35.1467 59.7725H60.1367L67.0867 43.4225H42.0967L35.1467 59.7725Z" stroke="black" stroke-width="2" stroke-miterlimit="10" stroke-linecap="round" stroke-linejoin="round"/>
<path d="M24.1768 59.7725H35.1468" stroke="black" stroke-width="2" stroke-miterlimit="10" stroke-linecap="round" stroke-linejoin="round"/>
<path d="M41.9729 27.0429C41.9729 28.1474 41.0764 29.0429 39.9729 29.0429C38.8694 29.0429 37.9729 28.1474 37.9729 27.0429C37.9729 25.9394 38.8694 25.0429 39.9729 25.0429C41.0764 25.0429 41.9729 25.9394 41.9729 27.0429Z" fill="black"/>
<path d="M33.9729 27.0429C33.9729 28.1474 33.0764 29.0429 31.9729 29.0429C30.8694 29.0429 29.9729 28.1474 29.9729 27.0429C29.9729 25.9394 30.8694 25.0429 31.9729 25.0429C33.0764 25.0429 33.9729 25.9394 33.9729 27.0429Z" fill="black"/>
<path d="M35.9728 37.0453C34.821 37.0453 33.6691 36.7592 32.5256 36.1874C32.0314 35.9403 31.8312 35.3397 32.0783 34.8456C32.3249 34.3519 32.9245 34.1513 33.4201 34.3983C35.1379 35.2577 36.8078 35.2577 38.5256 34.3983C39.0202 34.1513 39.6203 34.3519 39.8674 34.8456C40.1145 35.3397 39.9143 35.9403 39.4201 36.1874C38.2766 36.7592 37.1247 37.0453 35.9728 37.0453Z" fill="black"/>
<path d="M35.8506 43.5771C29.0469 43.5771 23.5117 36.7705 23.5117 28.4038C23.5117 27.7368 23.5469 27.0693 23.6162 26.4199C23.6738 25.8711 24.1748 25.4722 24.7158 25.5317C25.2656 25.5898 25.6631 26.0825 25.6045 26.6318C25.543 27.2114 25.5117 27.8076 25.5117 28.4038C25.5117 35.668 30.1494 41.5771 35.8506 41.5771C41.5508 41.5771 46.1885 35.668 46.1885 28.4038C46.1885 27.8164 46.1582 27.2231 46.0967 26.6401C46.04 26.0908 46.4395 25.5991 46.9883 25.542C47.541 25.481 48.0293 25.8843 48.0869 26.4331C48.1543 27.085 48.1885 27.7476 48.1885 28.4038C48.1885 36.7705 42.6533 43.5771 35.8506 43.5771Z" fill="black"/>
<path d="M47.1885 27.5259C47.0645 27.5259 46.9395 27.5024 46.8203 27.4556C46.5205 27.3369 46.2969 27.0811 46.2188 26.7686C45.6436 24.4727 44.5293 21.7197 43.7324 21.2759C43.25 21.0068 43.0771 20.3979 43.3467 19.9155C43.6152 19.4331 44.2236 19.2588 44.707 19.5288C45.9717 20.2339 46.9492 22.4707 47.5439 24.2119C47.8721 22.6074 47.2793 20.231 46.7178 18.3594C46.5596 17.8306 46.8594 17.2729 47.3887 17.1143C47.9189 16.9561 48.4756 17.2563 48.6338 17.7852C49.3105 20.042 50.8965 25.3281 47.7295 27.3667C47.5664 27.4722 47.3779 27.5259 47.1885 27.5259Z" fill="black"/>
<path d="M24.5116 27.8125C24.1649 27.8125 23.8417 27.6323 23.6591 27.3354C21.956 24.5586 21.4276 21.938 22.0897 19.5464C22.7938 16.999 24.664 15.4556 25.6161 14.8115C25.6395 12.6172 27.1864 10.481 29.7167 9.2329C33.3573 7.4365 39.1464 7.4326 44.7274 12.5977L46.6757 11.0942C47.1005 10.7676 47.705 10.833 48.0497 11.2388C49.1767 12.5669 50.5761 15.8794 47.7987 18.9072C47.1239 19.6406 46.3183 20.2695 45.4042 20.7769C41.5243 22.9292 34.4384 23.7583 28.5126 21.2734L25.3993 27.2729C25.2333 27.5933 24.9081 27.7988 24.5478 27.812C24.5351 27.8125 24.5233 27.8125 24.5116 27.8125ZM34.5263 10.1479C33.036 10.1479 31.6981 10.4858 30.6015 11.0264C28.5966 12.0161 27.4335 13.6611 27.6386 15.2183C27.6942 15.6348 27.4823 16.0415 27.1103 16.2358C27.0897 16.2466 24.7099 17.5366 24.0116 20.1001C23.6347 21.4819 23.8017 23.0073 24.5067 24.6509L27.1737 19.5117C27.4237 19.0313 28.0087 18.8354 28.4999 19.0732C33.7792 21.6475 40.7489 21.0713 44.4335 19.0278C45.161 18.625 45.7968 18.1289 46.3251 17.5542C47.8407 15.9019 47.4765 14.2827 47.0312 13.3467L45.2675 14.7075C44.869 15.0137 44.3065 14.9785 43.9491 14.623C40.6679 11.3413 37.328 10.1479 34.5263 10.1479Z" fill="black"/>
</svg>
