<svg width="28" height="43" viewBox="0 0 28 43" fill="none" xmlns="http://www.w3.org/2000/svg">
<path d="M2.34277 6.1626C2.34277 3.95346 4.13363 2.1626 6.34277 2.1626H23.3924C25.6015 2.1626 27.3924 3.95346 27.3924 6.1626V30.8908C27.3924 37.5182 22.0198 42.8908 15.3924 42.8908H6.34277C4.13363 42.8908 2.34277 41.0999 2.34277 38.8908V6.1626Z" fill="url(#paint0_linear_1409_496)"/>
<path d="M1.26147 5.08106C1.26147 2.87192 3.05234 1.08105 5.26147 1.08105H22.3111C24.5202 1.08105 26.3111 2.87192 26.3111 5.08105V29.8092C26.3111 36.4366 20.9385 41.8092 14.3111 41.8092H5.26147C3.05234 41.8092 1.26147 40.0183 1.26147 37.8092V5.08106Z" fill="url(#paint1_linear_1409_496)"/>
<path d="M0 4C0 1.79086 1.79086 0 4 0H21.0496C23.2588 0 25.0496 1.79086 25.0496 4V28.7282C25.0496 35.3556 19.677 40.7282 13.0496 40.7282H4C1.79086 40.7282 0 38.9373 0 36.7282V4Z" fill="url(#paint2_linear_1409_496)"/>
<path d="M2.52301 6.70312C2.52301 4.49398 4.31387 2.70312 6.52301 2.70312H18.3464C20.5556 2.70312 22.3464 4.49399 22.3464 6.70312V13.364C22.3464 17.23 19.2124 20.364 15.3464 20.364H6.52301C4.31387 20.364 2.52301 18.5731 2.52301 16.364V6.70312Z" fill="#1A1D21"/>
<path d="M7.56012 22.8867C8.1124 22.8867 8.56012 23.3344 8.56012 23.8867V25.6797H10.3531C10.9053 25.6797 11.3529 26.1275 11.3531 26.6797V27.9238C11.3531 28.4761 10.9054 28.9238 10.3531 28.9238H8.56012V30.7168C8.56012 31.2691 8.1124 31.7168 7.56012 31.7168H6.31598C5.76385 31.7166 5.31598 31.269 5.31598 30.7168V28.9238H3.52301C2.97073 28.9238 2.52302 28.4761 2.52301 27.9238V26.6797C2.52316 26.1275 2.97082 25.6797 3.52301 25.6797H5.31598V23.8867C5.31598 23.3345 5.76385 22.8869 6.31598 22.8867H7.56012Z" fill="#1A1D21"/>
<path d="M16.2188 27.5723C17.2139 27.5723 18.0213 28.3789 18.0215 29.374C18.0215 30.3693 17.2141 31.1768 16.2188 31.1768C15.2237 31.1766 14.4171 30.3692 14.4171 29.374C14.4173 28.3791 15.2238 27.5725 16.2188 27.5723ZM19.463 24.5088C20.4581 24.5088 21.2645 25.3154 21.2647 26.3105C21.2647 27.3058 20.4582 28.1133 19.463 28.1133C18.4677 28.1132 17.6612 27.3058 17.6612 26.3105C17.6614 25.3154 18.4678 24.5088 19.463 24.5088Z" fill="#1A1D21"/>
<rect x="18.2239" y="34.7808" width="0.540639" height="2.52298" rx="0.27032" transform="rotate(60 18.2239 34.7808)" fill="#1A1D21"/>
<rect x="19.3229" y="35.603" width="0.540639" height="2.52298" rx="0.27032" transform="rotate(60 19.3229 35.603)" fill="#1A1D21"/>
<defs>
<linearGradient id="paint0_linear_1409_496" x1="14.8676" y1="2.1626" x2="14.8676" y2="42.8908" gradientUnits="userSpaceOnUse">
<stop stop-color="#2D00F7"/>
<stop offset="1" stop-color="#8900F2"/>
</linearGradient>
<linearGradient id="paint1_linear_1409_496" x1="13.7863" y1="1.08105" x2="13.7863" y2="41.8092" gradientUnits="userSpaceOnUse">
<stop stop-color="#D100D1"/>
<stop offset="1" stop-color="#E500A4"/>
</linearGradient>
<linearGradient id="paint2_linear_1409_496" x1="12.5248" y1="0" x2="12.5248" y2="40.7282" gradientUnits="userSpaceOnUse">
<stop stop-color="#F8F9FA"/>
<stop offset="1" stop-color="#CED4DA"/>
</linearGradient>
</defs>
</svg>
